# xmcd
# 
# Track frame offsets:
#     150
#     14572
#     30147
#     44485
#     60042
#     75705
#     89637
#     103975
#     117875
#     131712
#     148627
#     163007
#     174882
#     189970
#     204585
#     218985
#     234040
#     249282
#     263775
#     277272
# 
# Disc length: 3873
# 
# Revision: 3
# Processed by: cddbd v1.5.2PL0 Copyright (c) Steve Scherf et al.
# Submitted via: fre:ac v1.0.27
# 
DISCID=110f1f14
DTITLE=Bessie Smith - The Gold Collection [CD1)
DYEAR=2001
DGENRE=Blues
TTITLE0=The St Louis Blues
TTITLE1=Careless Love
TTITLE2=Cake Walkin' Babies
TTITLE3=Down Hearted Blues
TTITLE4=T'Aint Nobody's Bizness If I Do
TTITLE5=Sing Sing Prison Blues
TTITLE6=Sinful Blues
TTITLE7=Reckless Blues
TTITLE8=The Yellow Dog Blues
TTITLE9=Nashville Women's Blues
TTITLE10=Ain't Got Nobody
TTITLE11=I Want Every Bit of It
TTITLE12=Jazzbo Brown From Memphis Town
TTITLE13=HOney Man BLues
TTITLE14=Trombone Cholly
TTITLE15=There'll be a Hot Time In The Old Town Tonight
TTITLE16=Send Me To The 'lectric Chair
TTITLE17=Mean Old Bedbug Blues
TTITLE18=Lock and Key
TTITLE19=Alftger You've Gone
EXTD=
EXTT0=
EXTT1=
EXTT2=
EXTT3=
EXTT4=
EXTT5=
EXTT6=
EXTT7=
EXTT8=
EXTT9=
EXTT10=
EXTT11=
EXTT12=
EXTT13=
EXTT14=
EXTT15=
EXTT16=
EXTT17=
EXTT18=
EXTT19=
PLAYORDER=
